<?xml version="1.0" encoding="UTF-8" standalone="no"?>
<!-- Created with Inkscape (http://www.inkscape.org/) -->

<svg
   width="127mm"
   height="127mm"
   viewBox="0 0 127 127"
   version="1.1"
   id="svg1"
   xml:space="preserve"
   inkscape:export-filename="kanbanboard.png"
   inkscape:export-xdpi="96"
   inkscape:export-ydpi="96"
   xmlns:inkscape="http://www.inkscape.org/namespaces/inkscape"
   xmlns:sodipodi="http://sodipodi.sourceforge.net/DTD/sodipodi-0.dtd"
   xmlns="http://www.w3.org/2000/svg"
   xmlns:svg="http://www.w3.org/2000/svg"><sodipodi:namedview
     id="namedview1"
     pagecolor="#505050"
     bordercolor="#eeeeee"
     borderopacity="1"
     inkscape:showpageshadow="0"
     inkscape:pageopacity="0"
     inkscape:pagecheckerboard="0"
     inkscape:deskcolor="#d1d1d1"
     inkscape:document-units="mm" /><defs
     id="defs1" /><g
     inkscape:label="Layer 1"
     inkscape:groupmode="layer"
     id="layer1"
     transform="translate(-41.639534,-84.999999)"><g
       style="fill:#4338ca;fill-opacity:1"
       id="g1"
       transform="matrix(2.1166667,0,0,2.1166667,1.4228666,44.994998)"><path
         d="m 56.5,38.3 c 0,-1 -0.9,-1.9 -1.9,-1.9 H 43.4 c -1,0 -1.9,0.9 -1.9,1.9 V 72 c 0,1 0.9,1.9 1.9,1.9 h 11.2 c 1,0 1.9,-0.9 1.9,-1.9 z m -22.5,0 c 0,-1 -0.9,-1.9 -1.9,-1.9 H 20.9 c -1,0 -1.9,0.9 -1.9,1.9 V 77 c 0,1 0.9,1.9 1.9,1.9 h 11.2 c 1,0 1.9,-0.9 1.9,-1.9 z m 45,0 c 0,-1 -0.9,-1.9 -1.9,-1.9 H 65.9 c -1,0 -1.9,0.9 -1.9,1.9 V 67 c 0,1 0.9,1.9 1.9,1.9 h 11.2 c 1,0 1.9,-0.9 1.9,-1.9 z m 0,-17.5 c 0,-1 -0.9,-1.9 -1.9,-1.9 H 20.9 c -1,0 -1.9,0.9 -1.9,1.9 V 27 c 0,1 0.9,1.9 1.9,1.9 h 56.2 c 1,0 1.9,-0.9 1.9,-1.9 z"
         id="path1"
         style="fill:#4338ca;fill-opacity:1" /></g></g></svg>
